umbra-3.ufo
<glyph name="quotedbl" format="1">
  <advance width="390"/>
  <unicode hex="0022"/>
  <outline>
    <contour>
      <point x="175" y="439" type="line"/>
      <point x="145" y="649" type="line"/>
      <point x="275" y="649" type="line"/>
      <point x="245" y="439" type="line"/>
    </contour>
    <contour>
      <point x="345" y="439" type="line"/>
      <point x="315" y="649" type="line"/>
      <point x="445" y="649" type="line"/>
      <point x="415" y="439" type="line"/>
    </contour>
  </outline>
</glyph>
<glyph name="numbersign" format="1">
  <advance width="600"/>
  <unicode hex="0023"/>
  <outline>
    <contour>
      <point x="120" y="264" type="line"/>
      <point x="120" y="359" type="line"/>
      <point x="243" y="359" type="line"/>
      <point x="257" y="439" type="line"/>
      <point x="170" y="439" type="line"/>
      <point x="170" y="534" type="line"/>
      <point x="274" y="534" type="line"/>
      <point x="295" y="649" type="line"/>
      <point x="400" y="649" type="line"/>
      <point x="379" y="534" type="line"/>
      <point x="459" y="534" type="line"/>
      <point x="480" y="649" type="line"/>
      <point x="585" y="649" type="line"/>
      <point x="564" y="534" type="line"/>
      <point x="670" y="534" type="line"/>
      <point x="670" y="439" type="line"/>
      <point x="547" y="439" type="line"/>
      <point x="533" y="359" type="line"/>
      <point x="620" y="359" type="line"/>
      <point x="620" y="264" type="line"/>
      <point x="516" y="264" type="line"/>
      <point x="495" y="149" type="line"/>
      <point x="390" y="149" type="line"/>
      <point x="411" y="264" type="line"/>
      <point x="331" y="264" type="line"/>
      <point x="310" y="149" type="line"/>
      <point x="205" y="149" type="line"/>
      <point x="226" y="264" type="line"/>
    </contour>
    <contour>
      <point x="428" y="359" type="line"/>
      <point x="442" y="439" type="line"/>
      <point x="362" y="439" type="line"/>
      <point x="348" y="359" type="line"/>
    </contour>
  </outline>
</glyph>
<glyph name="ampersand" format="1">
  <advance width="487"/>
  <unicode hex="0026"/>
  <outline>
    <contour>
      <point x="390" y="358" type="line"/>
      <point x="357" y="358" type="line" smooth="yes"/>
      <point x="309" y="358"/>
      <point x="275" y="347"/>
      <point x="275" y="309" type="curve" smooth="yes"/>
      <point x="275" y="278"/>
      <point x="302" y="259"/>
      <point x="335" y="259" type="curve" smooth="yes"/>
      <point x="358" y="259"/>
      <point x="390" y="272"/>
      <point x="390" y="303" type="curve" smooth="yes"/>
    </contour>
    <contour>
      <point x="300" y="506" type="curve" smooth="yes"/>
      <point x="300" y="478"/>
      <point x="309" y="453"/>
      <point x="357" y="453" type="curve" smooth="yes"/>
      <point x="557" y="453" type="line"/>
      <point x="557" y="358" type="line"/>
      <point x="505" y="358" type="line"/>
      <point x="509" y="342"/>
      <point x="510" y="320"/>
      <point x="510" y="276" type="curve" smooth="yes"/>
      <point x="510" y="181"/>
      <point x="416" y="134"/>
      <point x="327" y="134" type="curve" smooth="yes"/>
      <point x="240" y="134"/>
      <point x="135" y="184"/>
      <point x="135" y="301" type="curve" smooth="yes"/>
      <point x="135" y="357"/>
      <point x="166" y="396"/>
      <point x="220" y="416" type="curve"/>
      <point x="175" y="434"/>
      <point x="149" y="467"/>
      <point x="149" y="522" type="curve" smooth="yes"/>
      <point x="149" y="619"/>
      <point x="234" y="664"/>
      <point x="321" y="664" type="curve" smooth="yes"/>
      <point x="408" y="664"/>
      <point x="468" y="614"/>
      <point x="488" y="587" type="curve"/>
      <point x="448" y="497" type="line"/>
      <point x="408" y="535"/>
      <point x="370" y="544"/>
      <point x="342" y="544" type="curve" smooth="yes"/>
      <point x="314" y="544"/>
      <point x="300" y="529"/>
    </contour>
  </outline>
</glyph>
<glyph name="parenleft" format="1">
  <advance width="232"/>
  <unicode hex="0028"/>
  <outline>
    <contour>
      <point x="242" y="109" type="line"/>
      <point x="167" y="194"/>
      <point x="130" y="299"/>
      <point x="130" y="404" type="curve" smooth="yes"/>
      <point x="130" y="509"/>
      <point x="167" y="614"/>
      <point x="242" y="699" type="curve"/>
      <point x="332" y="699" type="line"/>
      <point x="282" y="624"/>
      <point x="258" y="514"/>
      <point x="258" y="404" type="curve" smooth="yes"/>
      <point x="258" y="294"/>
      <point x="282" y="184"/>
      <point x="332" y="109" type="curve"/>
    </contour>
  </outline>
</glyph>
<glyph name="comma" format="1">
  <advance width="220"/>
  <unicode hex="002C"/>
  <outline>
    <contour>
      <point x="145" y="29" type="line"/>
      <point x="145" y="289" type="line"/>
      <point x="275" y="289" type="line"/>
      <point x="275" y="149" type="line"/>
    </contour>
  </outline>
</glyph>
<glyph name="period" format="1">
  <advance width="291"/>
  <unicode hex="002E"/>
  <outline>
    <contour>
      <point x="245" y="121" type="line"/>
      <point x="140" y="226" type="line"/>
      <point x="245" y="332" type="line"/>
      <point x="351" y="226" type="line"/>
    </contour>
  </outline>
</glyph>
<glyph name="slash" format="1">
  <advance width="460"/>
  <unicode hex="002F"/>
  <outline>
    <contour>
      <point x="110" y="149" type="line"/>
      <point x="420" y="649" type="line"/>
      <point x="550" y="649" type="line"/>
      <point x="240" y="149" type="line"/>
    </contour>
  </outline>
</glyph>
<glyph name="one" format="1">
  <advance width="230"/>
  <unicode hex="0031"/>
  <outline>
    <contour>
      <point x="145" y="149" type="line"/>
      <point x="145" y="599" type="line"/>
      <point x="285" y="679" type="line"/>
      <point x="285" y="149" type="line"/>
    </contour>
  </outline>
</glyph>
<glyph name="four" format="1">
  <advance width="490"/>
  <unicode hex="0034"/>
  <outline>
    <contour>
      <point x="355" y="244" type="line"/>
      <point x="278" y="244"/>
      <point x="202" y="244"/>
      <point x="125" y="244" type="curve"/>
      <point x="105" y="314" type="line"/>
      <point x="395" y="649" type="line"/>
      <point x="495" y="649" type="line"/>
      <point x="495" y="549"/>
      <point x="495" y="449"/>
      <point x="495" y="349" type="curve"/>
      <point x="565" y="349" type="line"/>
      <point x="565" y="244" type="line"/>
      <point x="495" y="244" type="line"/>
      <point x="495" y="149" type="line"/>
      <point x="355" y="149" type="line"/>
    </contour>
    <contour>
      <point x="366" y="349" type="line"/>
      <point x="366" y="481" type="line"/>
      <point x="252" y="349" type="line"/>
    </contour>
  </outline>
</glyph>
<glyph name="seven" format="1">
  <advance width="455"/>
  <unicode hex="0037"/>
  <outline>
    <contour>
      <point x="535" y="649" type="line"/>
      <point x="534" y="509"/>
      <point x="357" y="456"/>
      <point x="357" y="146" type="curve"/>
      <point x="222" y="148" type="line"/>
      <point x="222" y="367"/>
      <point x="309" y="447"/>
      <point x="368" y="529" type="curve"/>
      <point x="125" y="529" type="line"/>
      <point x="125" y="649" type="line"/>
    </contour>
  </outline>
</glyph>
<glyph name="nine" format="1">
  <advance width="474"/>
  <unicode hex="0039"/>
  <outline>
    <contour>
      <point x="399" y="487" type="curve" smooth="yes"/>
      <point x="399" y="515"/>
      <point x="380" y="544"/>
      <point x="332" y="544" type="curve" smooth="yes"/>
      <point x="284" y="544"/>
      <point x="265" y="515"/>
      <point x="265" y="487" type="curve" smooth="yes"/>
      <point x="265" y="459"/>
      <point x="284" y="430"/>
      <point x="332" y="430" type="curve" smooth="yes"/>
      <point x="380" y="430"/>
      <point x="399" y="459"/>
    </contour>
    <contour>
      <point x="135" y="487" type="curve" smooth="yes"/>
      <point x="135" y="594"/>
      <point x="210" y="659"/>
      <point x="327" y="659" type="curve" smooth="yes"/>
      <point x="484" y="659"/>
      <point x="539" y="534"/>
      <point x="539" y="417" type="curve" smooth="yes"/>
      <point x="539" y="290"/>
      <point x="463" y="139"/>
      <point x="326" y="139" type="curve" smooth="yes"/>
      <point x="249" y="139"/>
      <point x="179" y="174"/>
      <point x="139" y="221" type="curve"/>
      <point x="180" y="327" type="line"/>
      <point x="220" y="289"/>
      <point x="257" y="259"/>
      <point x="305" y="259" type="curve" smooth="yes"/>
      <point x="373" y="259"/>
      <point x="402" y="318"/>
      <point x="408" y="386" type="curve"/>
      <point x="378" y="349"/>
      <point x="332" y="335"/>
      <point x="297" y="335" type="curve" smooth="yes"/>
      <point x="230" y="335"/>
      <point x="135" y="380"/>
    </contour>
  </outline>
</glyph>
<glyph name="semicolon" format="1">
  <advance width="291"/>
  <unicode hex="003B"/>
  <outline>
    <contour>
      <point x="185" y="29" type="line"/>
      <point x="185" y="289" type="line"/>
      <point x="315" y="289" type="line"/>
      <point x="315" y="149" type="line"/>
    </contour>
    <contour>
      <point x="245" y="406" type="line"/>
      <point x="140" y="511" type="line"/>
      <point x="245" y="617" type="line"/>
      <point x="351" y="511" type="line"/>
    </contour>
  </outline>
</glyph>
<glyph name="A" format="1">
  <advance width="580"/>
  <unicode hex="0041"/>
  <outline>
    <contour>
      <point x="110" y="149" type="line"/>
      <point x="310" y="649" type="line"/>
      <point x="470" y="649" type="line"/>
      <point x="670" y="149" type="line"/>
      <point x="520" y="149" type="line"/>
      <point x="489" y="234" type="line"/>
      <point x="291" y="234" type="line"/>
      <point x="260" y="149" type="line"/>
    </contour>
    <contour>
      <point x="390" y="510" type="line"/>
      <point x="332" y="349" type="line"/>
      <point x="448" y="349" type="line"/>
    </contour>
  </outline>
</glyph>
<glyph name="B" format="1">
  <advance width="502"/>
  <unicode hex="0042"/>
  <outline>
    <contour>
      <point x="145" y="149" type="curve"/>
      <point x="145" y="649" type="line"/>
      <point x="218" y="649"/>
      <point x="292" y="649"/>
      <point x="365" y="649" type="curve" smooth="yes"/>
      <point x="482" y="649"/>
      <point x="557" y="594"/>
      <point x="557" y="507" type="curve" smooth="yes"/>
      <point x="557" y="453"/>
      <point x="534" y="423"/>
      <point x="494" y="407" type="curve"/>
      <point x="547" y="386"/>
      <point x="577" y="348"/>
      <point x="577" y="292" type="curve" smooth="yes"/>
      <point x="577" y="195"/>
      <point x="502" y="149"/>
      <point x="385" y="149" type="curve" smooth="yes"/>
      <point x="305" y="149"/>
      <point x="225" y="149"/>
    </contour>
    <contour>
      <point x="365" y="544" type="curve" smooth="yes"/>
      <point x="285" y="544" type="line"/>
      <point x="285" y="454" type="line"/>
      <point x="365" y="454" type="line" smooth="yes"/>
      <point x="393" y="454"/>
      <point x="412" y="469"/>
      <point x="412" y="497" type="curve" smooth="yes"/>
      <point x="412" y="525"/>
      <point x="393" y="544"/>
    </contour>
    <contour>
      <point x="285" y="359" type="line"/>
      <point x="285" y="259" type="line"/>
      <point x="375" y="259" type="line" smooth="yes"/>
      <point x="413" y="259"/>
      <point x="432" y="282"/>
      <point x="432" y="310" type="curve" smooth="yes"/>
      <point x="432" y="338"/>
      <point x="413" y="359"/>
      <point x="375" y="359" type="curve" smooth="yes"/>
    </contour>
  </outline>
</glyph>
<glyph name="C" format="1">
  <advance width="515"/>
  <unicode hex="0043"/>
  <outline>
    <contour>
      <point x="275" y="399" type="curve" smooth="yes"/>
      <point x="275" y="306"/>
      <point x="348" y="254"/>
      <point x="405" y="254" type="curve" smooth="yes"/>
      <point x="466" y="254"/>
      <point x="510" y="277"/>
      <point x="535" y="310" type="curve"/>
      <point x="575" y="183" type="line"/>
      <point x="543" y="151"/>
      <point x="496" y="129"/>
      <point x="415" y="129" type="curve" smooth="yes"/>
      <point x="240" y="129"/>
      <point x="130" y="250"/>
      <point x="130" y="399" type="curve" smooth="yes"/>
      <point x="130" y="548"/>
      <point x="240" y="669"/>
      <point x="415" y="669" type="curve" smooth="yes"/>
      <point x="496" y="669"/>
      <point x="543" y="647"/>
      <point x="575" y="615" type="curve"/>
      <point x="535" y="488" type="line"/>
      <point x="510" y="521"/>
      <point x="466" y="544"/>
      <point x="405" y="544" type="curve" smooth="yes"/>
      <point x="348" y="544"/>
      <point x="275" y="492"/>
    </contour>
  </outline>
</glyph>
<glyph name="D" format="1">
  <advance width="555"/>
  <unicode hex="0044"/>
  <outline>
    <contour>
      <point x="145" y="149" type="curve"/>
      <point x="145" y="649" type="line"/>
      <point x="218" y="649"/>
      <point x="292" y="649"/>
      <point x="365" y="649" type="curve" smooth="yes"/>
      <point x="540" y="649"/>
      <point x="625" y="548"/>
      <point x="625" y="399" type="curve" smooth="yes"/>
      <point x="625" y="250"/>
      <point x="540" y="149"/>
      <point x="365" y="149" type="curve" smooth="yes"/>
      <point x="292" y="149"/>
      <point x="218" y="149"/>
    </contour>
    <contour>
      <point x="365" y="269" type="line" smooth="yes"/>
      <point x="427" y="269"/>
      <point x="480" y="306"/>
      <point x="480" y="399" type="curve" smooth="yes"/>
      <point x="480" y="492"/>
      <point x="427" y="529"/>
      <point x="365" y="529" type="curve" smooth="yes"/>
      <point x="285" y="529" type="line"/>
      <point x="285" y="269" type="line"/>
    </contour>
  </outline>
</glyph>
<glyph name="G" format="1">
  <advance width="555"/>
  <unicode hex="0047"/>
  <outline>
    <contour>
      <point x="275" y="399" type="curve" smooth="yes"/>
      <point x="275" y="306"/>
      <point x="348" y="254"/>
      <point x="405" y="254" type="curve" smooth="yes"/>
      <point x="439" y="254"/>
      <point x="467" y="261"/>
      <point x="490" y="273" type="curve"/>
      <point x="490" y="344" type="line"/>
      <point x="380" y="344" type="line"/>
      <point x="380" y="439" type="line"/>
      <point x="620" y="439" type="line"/>
      <point x="620" y="223" type="line"/>
      <point x="568" y="171"/>
      <point x="486" y="129"/>
      <point x="405" y="129" type="curve" smooth="yes"/>
      <point x="250" y="129"/>
      <point x="130" y="250"/>
      <point x="130" y="399" type="curve" smooth="yes"/>
      <point x="130" y="548"/>
      <point x="240" y="669"/>
      <point x="415" y="669" type="curve" smooth="yes"/>
      <point x="496" y="669"/>
      <point x="543" y="647"/>
      <point x="575" y="615" type="curve"/>
      <point x="535" y="488" type="line"/>
      <point x="510" y="521"/>
      <point x="466" y="544"/>
      <point x="405" y="544" type="curve" smooth="yes"/>
      <point x="348" y="544"/>
      <point x="275" y="492"/>
    </contour>
  </outline>
</glyph>
<glyph name="M" format="1">
  <advance width="690"/>
  <unicode hex="004D"/>
  <outline>
    <contour>
      <point x="145" y="149" type="line"/>
      <point x="145" y="649" type="line"/>
      <point x="285" y="649" type="line"/>
      <point x="445" y="379" type="line"/>
      <point x="605" y="649" type="line"/>
      <point x="745" y="649" type="line"/>
      <point x="745" y="149" type="line"/>
      <point x="605" y="149" type="line"/>
      <point x="605" y="409" type="line"/>
      <point x="445" y="139" type="line"/>
      <point x="285" y="409" type="line"/>
      <point x="285" y="149" type="line"/>
    </contour>
  </outline>
</glyph>
<glyph name="P" format="1">
  <advance width="487"/>
  <unicode hex="0050"/>
  <outline>
    <contour>
      <point x="145" y="149" type="line"/>
      <point x="145" y="649" type="line"/>
      <point x="218" y="649"/>
      <point x="292" y="649"/>
      <point x="365" y="649" type="curve" smooth="yes"/>
      <point x="482" y="649"/>
      <point x="567" y="574"/>
      <point x="567" y="467" type="curve" smooth="yes"/>
      <point x="567" y="350"/>
      <point x="482" y="284"/>
      <point x="365" y="284" type="curve" smooth="yes"/>
      <point x="285" y="284" type="line"/>
      <point x="285" y="149" type="line"/>
    </contour>
    <contour>
      <point x="355" y="534" type="curve" smooth="yes"/>
      <point x="285" y="534" type="line"/>
      <point x="285" y="399" type="line"/>
      <point x="355" y="399" type="line" smooth="yes"/>
      <point x="393" y="399"/>
      <point x="422" y="419"/>
      <point x="422" y="467" type="curve" smooth="yes"/>
      <point x="422" y="515"/>
      <point x="393" y="534"/>
    </contour>
  </outline>
</glyph>
<glyph name="V" format="1">
  <advance width="580"/>
  <unicode hex="0056"/>
  <outline>
    <contour>
      <point x="670" y="649" type="line"/>
      <point x="470" y="149" type="line"/>
      <point x="310" y="149" type="line"/>
      <point x="110" y="649" type="line"/>
      <point x="260" y="649" type="line"/>
      <point x="390" y="288" type="line"/>
      <point x="520" y="649" type="line"/>
    </contour>
  </outline>
</glyph>
<glyph name="Y" format="1">
  <advance width="540"/>
  <unicode hex="0059"/>
  <outline>
    <contour>
      <point x="440" y="329" type="line"/>
      <point x="440" y="149" type="line"/>
      <point x="300" y="149" type="line"/>
      <point x="300" y="329" type="line"/>
      <point x="110" y="649" type="line"/>
      <point x="270" y="649" type="line"/>
      <point x="370" y="449" type="line"/>
      <point x="470" y="649" type="line"/>
      <point x="630" y="649" type="line"/>
    </contour>
  </outline>
</glyph>
<glyph name="backslash" format="1">
  <advance width="460"/>
  <unicode hex="005C"/>
  <outline>
    <contour>
      <point x="550" y="149" type="line"/>
      <point x="420" y="149" type="line"/>
      <point x="110" y="649" type="line"/>
      <point x="240" y="649" type="line"/>
    </contour>
  </outline>
</glyph>
<glyph name="g" format="1">
  <advance width="489"/>
  <unicode hex="0067"/>
  <outline>
    <contour>
      <point x="414" y="207" type="line"/>
      <point x="383" y="177"/>
      <point x="342" y="159"/>
      <point x="297" y="159" type="curve" smooth="yes"/>
      <point x="190" y="159"/>
      <point x="135" y="244"/>
      <point x="135" y="351" type="curve" smooth="yes"/>
      <point x="135" y="458"/>
      <point x="190" y="544"/>
      <point x="297" y="544" type="curve" smooth="yes"/>
      <point x="342" y="544"/>
      <point x="383" y="528"/>
      <point x="414" y="499" type="curve"/>
      <point x="414" y="534" type="line"/>
      <point x="549" y="534" type="line"/>
      <point x="549" y="109" type="line" smooth="yes"/>
      <point x="549" y="12"/>
      <point x="454" y="-43"/>
      <point x="367" y="-43" type="curve" smooth="yes"/>
      <point x="290" y="-43"/>
      <point x="220" y="-18"/>
      <point x="160" y="19" type="curve"/>
      <point x="200" y="119" type="line"/>
      <point x="250" y="81"/>
      <point x="309" y="67"/>
      <point x="347" y="67" type="curve" smooth="yes"/>
      <point x="395" y="67"/>
      <point x="414" y="81"/>
      <point x="414" y="139" type="curve" smooth="yes"/>
    </contour>
    <contour>
      <point x="414" y="407" type="line"/>
      <point x="395" y="428"/>
      <point x="366" y="439"/>
      <point x="337" y="439" type="curve" smooth="yes"/>
      <point x="289" y="439"/>
      <point x="270" y="399"/>
      <point x="270" y="351" type="curve" smooth="yes"/>
      <point x="270" y="303"/>
      <point x="289" y="264"/>
      <point x="337" y="264" type="curve" smooth="yes"/>
      <point x="366" y="264"/>
      <point x="395" y="275"/>
      <point x="414" y="296" type="curve"/>
    </contour>
  </outline>
</glyph>
<glyph name="p" format="1">
  <advance width="499"/>
  <unicode hex="0070"/>
  <outline>
    <contour>
      <point x="140" y="534" type="line"/>
      <point x="275" y="534" type="line"/>
      <point x="275" y="492" type="line"/>
      <point x="306" y="524"/>
      <point x="347" y="544"/>
      <point x="392" y="544" type="curve" smooth="yes"/>
      <point x="499" y="544"/>
      <point x="564" y="459"/>
      <point x="564" y="342" type="curve" smooth="yes"/>
      <point x="564" y="225"/>
      <point x="499" y="139"/>
      <point x="392" y="139" type="curve" smooth="yes"/>
      <point x="347" y="139"/>
      <point x="306" y="157"/>
      <point x="275" y="188" type="curve"/>
      <point x="275" y="4" type="line"/>
      <point x="140" y="4" type="line"/>
    </contour>
    <contour>
      <point x="275" y="283" type="line"/>
      <point x="294" y="259"/>
      <point x="323" y="244"/>
      <point x="352" y="244" type="curve" smooth="yes"/>
      <point x="400" y="244"/>
      <point x="429" y="284"/>
      <point x="429" y="342" type="curve" smooth="yes"/>
      <point x="429" y="400"/>
      <point x="400" y="439"/>
      <point x="352" y="439" type="curve" smooth="yes"/>
      <point x="323" y="439"/>
      <point x="294" y="425"/>
      <point x="275" y="401" type="curve"/>
    </contour>
  </outline>
</glyph>
<glyph name="r" format="1">
  <advance width="374"/>
  <unicode hex="0072"/>
  <outline>
    <contour>
      <point x="474" y="471" type="curve"/>
      <point x="399" y="371" type="line"/>
      <point x="379" y="399"/>
      <point x="370" y="419"/>
      <point x="332" y="419" type="curve" smooth="yes"/>
      <point x="313" y="419"/>
      <point x="292" y="407"/>
      <point x="275" y="389" type="curve"/>
      <point x="275" y="149" type="line"/>
      <point x="140" y="149" type="line"/>
      <point x="140" y="534" type="line"/>
      <point x="255" y="534" type="line"/>
      <point x="264" y="459" type="line"/>
      <point x="293" y="507"/>
      <point x="335" y="539"/>
      <point x="372" y="539" type="curve" smooth="yes"/>
      <point x="429" y="539"/>
      <point x="454" y="498"/>
    </contour>
  </outline>
</glyph>
<glyph name="s" format="1">
  <advance width="374"/>
  <unicode hex="0073"/>
  <outline>
    <contour>
      <point x="314" y="261" type="curve" smooth="yes"/>
      <point x="314" y="311"/>
      <point x="146" y="307"/>
      <point x="146" y="427" type="curve" smooth="yes"/>
      <point x="146" y="524"/>
      <point x="221" y="549"/>
      <point x="298" y="549" type="curve" smooth="yes"/>
      <point x="335" y="549"/>
      <point x="385" y="534"/>
      <point x="435" y="487" type="curve"/>
      <point x="395" y="397" type="line"/>
      <point x="355" y="435"/>
      <point x="327" y="449"/>
      <point x="309" y="449" type="curve" smooth="yes"/>
      <point x="291" y="449"/>
      <point x="281" y="440"/>
      <point x="281" y="427" type="curve" smooth="yes"/>
      <point x="281" y="377"/>
      <point x="449" y="375"/>
      <point x="449" y="271" type="curve" smooth="yes"/>
      <point x="449" y="174"/>
      <point x="364" y="134"/>
      <point x="287" y="134" type="curve" smooth="yes"/>
      <point x="220" y="134"/>
      <point x="170" y="149"/>
      <point x="120" y="196" type="curve"/>
      <point x="160" y="286" type="line"/>
      <point x="200" y="248"/>
      <point x="249" y="234"/>
      <point x="267" y="234" type="curve" smooth="yes"/>
      <point x="295" y="234"/>
      <point x="314" y="240"/>
    </contour>
  </outline>
</glyph>
<glyph name="quotedblleft" format="1">
  <advance width="430"/>
  <unicode hex="201C"/>
  <outline>
    <contour>
      <point x="485" y="689" type="line"/>
      <point x="485" y="429" type="line"/>
      <point x="355" y="429" type="line"/>
      <point x="355" y="569" type="line"/>
    </contour>
    <contour>
      <point x="275" y="689" type="line"/>
      <point x="275" y="429" type="line"/>
      <point x="145" y="429" type="line"/>
      <point x="145" y="569" type="line"/>
    </contour>
  </outline>
</glyph>
<glyph name="quotedblright" format="1">
  <advance width="430"/>
  <unicode hex="201D"/>
  <outline>
    <contour>
      <point x="355" y="389" type="line"/>
      <point x="355" y="649" type="line"/>
      <point x="485" y="649" type="line"/>
      <point x="485" y="509" type="line"/>
    </contour>
    <contour>
      <point x="145" y="389" type="line"/>
      <point x="145" y="649" type="line"/>
      <point x="275" y="649" type="line"/>
      <point x="275" y="509" type="line"/>
    </contour>
  </outline>
</glyph>
